<svg xmlns="http://www.w3.org/2000/svg" 
stroke-width="0.75rlh"
viewBox="0 0 512 512"><!--!Font Awesome Free 6.5.1 by @fontawesome - https://fontawesome.com License - https://fontawesome.com/license/free Copyright 2024 Fonticons, Inc.--><path 
d="M416 32H31.9C14.3 32 0 46.5 0 64.3v383.4C0 465.5 14.3 480 31.9 480H416c17.6 0 32-14.5 32-32.3V64.3c0-17.8-14.4-32.3-32-32.3z"/><path class="full" transform="scale(0.666,0.666) translate(89,120)"
d="M390.9 298.5c0 0 0 .1 .1 .1c9.2 19.4 14.4 41.1 14.4 64C405.3 445.1 338.5 512 256 512s-149.3-66.9-149.3-149.3c0-22.9 5.2-44.6 14.4-64h0c1.7-3.6 3.6-7.2 5.6-10.7c4.4-7.6 9.4-14.7 15-21.3c27.4-32.6 68.5-53.3 114.4-53.3c33.6 0 64.6 11.1 89.6 29.9c9.1 6.9 17.4 14.7 24.8 23.5c5.6 6.6 10.6 13.8 15 21.3c2 3.4 3.8 7 5.5 10.5zm26.4-18.8c-30.1-58.4-91-98.4-161.3-98.4s-131.2 40-161.3 98.4L0 202.7 256 0 512 202.7l-94.7 77.1z"
/></svg>